<svg xmlns="http://www.w3.org/2000/svg" width="512" height="512" viewBox="0 0 512 512" fill="none">
  <rect width="512" height="512" rx="64" fill="#000000"/>
  <path d="M256 128C189.31 128 136 181.31 136 248C136 314.69 189.31 368 256 368C322.69 368 376 314.69 376 248C376 181.31 322.69 128 256 128ZM256 344C202.98 344 160 301.02 160 248C160 194.98 202.98 152 256 152C309.02 152 352 194.98 352 248C352 301.02 309.02 344 256 344Z" fill="#FFFFFF"/>
  <path d="M256 192C220.65 192 192 220.65 192 256C192 291.35 220.65 320 256 320C291.35 320 320 291.35 320 256C320 220.65 291.35 192 256 192ZM256 296C233.91 296 216 278.09 216 256C216 233.91 233.91 216 256 216C278.09 216 296 233.91 296 256C296 278.09 278.09 296 256 296Z" fill="#FFFFFF"/>
</svg> 